<svg id="Layer_1" data-name="Layer 1" xmlns="http://www.w3.org/2000/svg" width="936.95" height="754.58" viewBox="0 0 936.95 754.58">
  <defs>
    <style>
      .cls-1 {
        isolation: isolate;
        font-size: 9.71px;
        font-family: ArialMT, Arial;
      }

      .cls-1, .cls-2 {
        fill: #ed1c24;
      }

      .cls-3 {
        fill: #fff;
      }
    </style>
  </defs>
  <g>
    <g>
      <text class="cls-1" transform="matrix(1.17, 0.01, -0.7, 0.72, 265.18, 577.33)">PS3</text>
      <text class="cls-1" transform="matrix(1.17, 0.01, -0.7, 0.72, 299.68, 577.67)">PS4</text>
    </g>
    <g>
      <text class="cls-1" transform="matrix(1.17, 0.01, -0.7, 0.72, 344.19, 577.94)">LS</text>
      <text class="cls-1" transform="matrix(1.17, 0.01, -0.7, 0.72, 375.88, 578.24)">RS</text>
    </g>
  </g>
  <g>
    <path class="cls-2" d="M932.1,387.6c-6.1-20.9-35.9-128.2-35.9-128.2s-7.2-21.9-24.5-38.8c0-1.2,0-3.5-.1-4.8-.1-1.9-13.3-9.8-20.2-13.5s-16.8-6.3-16.8-6.3-111.7-18.7-121-20.2-17.9-2-17.9-2-30.8-.1-34.8-.1-5.5,4.8-5.5,4.8v1.9c-77.9-.3-289.2-1.2-368.6-1.5l.1-2.8s-1.5-4.8-5.5-4.8H246.6a164.29,164.29,0,0,0-17.9,2c-9.3,1.5-121,19.9-121,19.9s-9.9,2.6-16.8,6.3S70.8,211,70.7,213c-.1,1.5-.1,4-.1,5.2-9.4,8.1-18.5,19.4-23,34.9C36,292.2,3,407.9,3,407.9s-3.2,11.3-3,29.5S5.1,675.7,5.1,675.7s5.5,40.6,38,51.5,82.5,26.7,82.5,26.7,27.2,6.3,37.5-13.1,56.4-132.1,56.4-132.1,11.6-17.8,26.6-18.2,209.8.6,209.8.6l42.1.2a1.73,1.73,0,0,0,1.1,0H508l141.5.5s23.6-.8,37.5,15.8,56.2,67.3,56.2,67.3,16,21.1,37.5,15.1,111.7-36.3,111.7-36.3,37.1-17.4,38.3-53.9,6.1-174.6,6.1-174.6S938.2,408.5,932.1,387.6Z" transform="translate(0.01 -0.3)"/>
    <path class="cls-2" d="M658.6,146.5v1.7h0v1.7h0v4.2a3.19,3.19,0,0,0,1.5,2.4,3.56,3.56,0,0,0,1.9.5,4.59,4.59,0,0,1,1,.1h.1c.9.1,2.2.2,3.8.3,1.4.1,3,.3,4.9.4a24.58,24.58,0,0,0,2.8.2l6.3.6c.7.1,1.4.1,2.1.2l10.1.9,3.3.3c2.1.2,4.2.4,6.1.6l2.7.3c1.1.1,2.2.2,3.1.3.5,0,.9.1,1.3.1s.8.1,1.2.1a.75.75,0,0,1,.5.1c.3,0,.6.1.9.1a5.38,5.38,0,0,0,1.1.1c1.1.2,13.9,1.9,30.9,4.2,2.6.3,5.2.7,7.9,1.1s5.5.7,8.3,1.1c35.9,4.8,79.2,10.7,79.2,10.7s1.7.2,3.5.6h0c.6.1,1.2.3,1.9.4h.1a3.09,3.09,0,0,0,.8.2h.2c.3.1.5.2.8.3s.9.4,1.8.7c.6.2,1.4.5,2.3.8,3.7,1.3,9.2,3.2,13.6,4.7l1,.3c.6.2,1.3.4,1.8.6l4.3,1.5h.8a3.17,3.17,0,0,0,1.6-.4,2.09,2.09,0,0,0,.6-.4,2.13,2.13,0,0,0,.7-1.5v-.4h0q.15-1,.3-3a1.27,1.27,0,0,1,.1-.6v-.3a6.75,6.75,0,0,1,.2-1.4,1.27,1.27,0,0,1,.1-.6c.1-.5.1-1,.2-1.5.4-3.9.8-7.7.8-7.7a2.24,2.24,0,0,0-.2-1.5c-.4-.7-12.5-25.2-12.5-25.2s-4.6-9.9-11.4-11.2-127.1-17.9-127.1-17.9a12.07,12.07,0,0,0-4.7.1c-1.9.6-58.7,19.7-58.7,19.7a4,4,0,0,0-2.8,3.1c0,.3-.1.9-.1,1.6h0a27,27,0,0,0-1,6.7Z" transform="translate(0.01 -0.3)"/>
    <path class="cls-2" d="M66.9,174.8h0c.2,2.1.5,4.8.8,7.2v.3c0,.4.1.9.1,1.3s.1.9.1,1.3v.1c.1.9.2,1.6.2,2a2.46,2.46,0,0,0,1,1.7,3.53,3.53,0,0,0,1.9.6h.8s3.1-1.1,7.2-2.4c.7-.2,1.4-.5,2.1-.7,1.1-.4,2.2-.7,3.3-1.1.7-.3,1.5-.5,2.2-.8,1.8-.6,3.6-1.2,5.1-1.8,2.4-.9,4.3-1.5,5-1.8a6.89,6.89,0,0,1,.8-.3h.2a2.35,2.35,0,0,1,.8-.2h.1a10.62,10.62,0,0,1,1.9-.4h0c1.9-.4,3.5-.6,3.5-.6s122.8-16.6,126.4-17.1c1-.1,5.2-.6,10.9-1.1,1.6-.2,3.3-.3,5-.5,1.4-.1,2.8-.3,4.3-.4l10-.9c.7-.1,1.5-.1,2.2-.2.4,0,.7-.1,1.1-.1.7-.1,1.4-.1,2.1-.2l3-.3,2.8-.3c1.8-.2,3.5-.3,4.9-.4,2.6-.2,4.3-.4,4.9-.4a3.56,3.56,0,0,0,1.9-.5,3.34,3.34,0,0,0,1.5-2.4v-2c0-.5-.1-1.2-.1-1.8v-.1c0-.7-.1-1.4-.1-2.1h0c-.2-2.9-.4-6.2-.6-8.2h0a10.36,10.36,0,0,1-.1-1.6,4,4,0,0,0-2.8-3.1s-56.8-19-58.7-19.7a10.28,10.28,0,0,0-4.7-.1S97.5,132.2,90.7,133.6s-11.4,11.2-11.4,11.2S67.2,169.3,66.8,170a2.24,2.24,0,0,0-.2,1.5S66.7,172.9,66.9,174.8Z" transform="translate(0.01 -0.3)"/>
    <path class="cls-2" d="M731.7,10.5l1.8,47.1,1.4,12.9,2.7,29.7s.2,2.7,7.1,2.3,12.5-.9,12.5-.9,3.7-.2,5.9-.1h19.5c17,.1,39,.3,39,.3h0s6.6,1.3,2.9-7.3-19.2-48-19.2-48-9.8-32.1-10.4-37.1S788.7.6,783.8.6,739.5.3,739.5.3s-8.2,1.6-7.9,8l.1,2.2Z" transform="translate(0.01 -0.3)"/>
    <path class="cls-2" d="M148.4,102h0s6.6,0,15.4-.1H165c2.5,0,5.1,0,7.7-.1h26.1c4.5,0,7.6-.1,8.1-.1,2.2-.1,5.9.1,5.9.1s5.7.5,12.5.9,7.1-2.3,7.1-2.3l2.7-29.7,1.4-12.9,1.8-47.1h0l.1-2c.3-6.4-7.9-8-7.9-8S191,.8,186.1.8,175.6,4.6,175,9.6s-10.4,37.1-10.4,37.1-15.5,39.4-19.2,48S148.4,102,148.4,102Z" transform="translate(0.01 -0.3)"/>
  </g>
  <g>
    <path class="cls-3" d="M226.2,416.1V357.4h20.2a55.09,55.09,0,0,1,10.5.8,20.39,20.39,0,0,1,8.6,4.2,23.69,23.69,0,0,1,6.9,10,40.28,40.28,0,0,1,2.3,14,39.4,39.4,0,0,1-1.6,11.9,29.26,29.26,0,0,1-4,8.5,20.5,20.5,0,0,1-5.3,5.3,20.22,20.22,0,0,1-7,2.9,38.18,38.18,0,0,1-9.4,1H226.2Zm7.8-7h12.5a30.79,30.79,0,0,0,9.1-1.1,12.94,12.94,0,0,0,5.3-3,18.34,18.34,0,0,0,4.3-7.4,37.27,37.27,0,0,0,1.5-11.3c0-6.1-1-10.9-3-14.2a15.23,15.23,0,0,0-7.3-6.6c-2.1-.8-5.4-1.2-10-1.2H234Z" transform="translate(0.01 -0.3)"/>
    <path class="cls-3" d="M284.5,365.7v-8.3h7.2v8.3Zm0,50.4V373.6h7.2v42.5Z" transform="translate(0.01 -0.3)"/>
    <path class="cls-3" d="M299.8,403.4l7.1-1.1a10.22,10.22,0,0,0,3.3,6.6c1.8,1.5,4.4,2.3,7.7,2.3s5.8-.7,7.4-2a5.92,5.92,0,0,0,2.4-4.7,4.31,4.31,0,0,0-2.1-3.8,29.11,29.11,0,0,0-7.4-2.4,62.34,62.34,0,0,1-11-3.5,10.67,10.67,0,0,1-4.6-4,10.23,10.23,0,0,1-1.6-5.7,10.94,10.94,0,0,1,1.3-5.3,11.28,11.28,0,0,1,3.5-4,15.26,15.26,0,0,1,4.6-2.1,20.65,20.65,0,0,1,6.2-.9,26.2,26.2,0,0,1,8.8,1.4,12,12,0,0,1,5.6,3.9,15.45,15.45,0,0,1,2.5,6.6l-7,1a7.26,7.26,0,0,0-2.8-5.1,10.27,10.27,0,0,0-6.5-1.8c-3.3,0-5.7.5-7.1,1.6a4.82,4.82,0,0,0-2.1,3.8,3.84,3.84,0,0,0,.9,2.5,6,6,0,0,0,2.8,1.9,63.15,63.15,0,0,0,6.4,1.8c5.1,1.4,8.7,2.5,10.7,3.3a10.47,10.47,0,0,1,4.7,3.8,11,11,0,0,1,1.7,6.2,12.1,12.1,0,0,1-2.1,6.8,13.09,13.09,0,0,1-6.1,4.9,23.29,23.29,0,0,1-9,1.7c-5.5,0-9.7-1.1-12.6-3.4A16.58,16.58,0,0,1,299.8,403.4Z" transform="translate(0.01 -0.3)"/>
    <path class="cls-3" d="M371.5,400.5l7.1.9a19.06,19.06,0,0,1-5.9,11.5,17.15,17.15,0,0,1-11.8,4.1c-5.8,0-10.5-1.9-14-5.7s-5.3-9.3-5.3-16.4a30.36,30.36,0,0,1,2.3-12.1,15.33,15.33,0,0,1,6.9-7.7,20.8,20.8,0,0,1,10.1-2.6,17.72,17.72,0,0,1,11.3,3.5,16.1,16.1,0,0,1,5.6,9.9l-7,1.1c-.7-2.9-1.8-5-3.5-6.4a9.3,9.3,0,0,0-6.1-2.2,11,11,0,0,0-8.8,3.9c-2.3,2.6-3.4,6.7-3.4,12.4s1.1,9.9,3.3,12.5a10.64,10.64,0,0,0,8.6,3.9,10.35,10.35,0,0,0,7.1-2.6C369.7,406.8,370.9,404.1,371.5,400.5Z" transform="translate(0.01 -0.3)"/>
    <path class="cls-3" d="M382,394.8c0-7.9,2.2-13.7,6.6-17.5a20.09,20.09,0,0,1,13.4-4.7,19.13,19.13,0,0,1,14.3,5.7c3.7,3.8,5.6,9.1,5.6,15.9,0,5.5-.8,9.8-2.5,12.9a16.91,16.91,0,0,1-7.2,7.3,21.29,21.29,0,0,1-10.3,2.6q-9,0-14.4-5.7C383.9,407.5,382,402,382,394.8Zm7.4,0c0,5.4,1.2,9.5,3.6,12.2a11.59,11.59,0,0,0,9,4.1,11.24,11.24,0,0,0,8.9-4.1c2.4-2.7,3.6-6.9,3.6-12.5,0-5.3-1.2-9.2-3.6-12a11.91,11.91,0,0,0-17.9-.1C390.6,385.3,389.4,389.4,389.4,394.8Z" transform="translate(0.01 -0.3)"/>
    <path class="cls-3" d="M430.3,416.1V373.6h6.5v6c3.1-4.7,7.6-7,13.5-7a18.35,18.35,0,0,1,7.1,1.4,10.7,10.7,0,0,1,4.8,3.6,13.24,13.24,0,0,1,2.2,5.3,37.93,37.93,0,0,1,.4,7V416h-7.2V390.1a21.79,21.79,0,0,0-.8-6.6,7.28,7.28,0,0,0-3-3.5,9.1,9.1,0,0,0-5-1.3,11.66,11.66,0,0,0-7.9,2.9q-3.3,2.85-3.3,11.1v23.2h-7.3Z" transform="translate(0.01 -0.3)"/>
    <path class="cls-3" d="M475.9,416.1V373.6h6.5v6c3.1-4.7,7.6-7,13.5-7A18.35,18.35,0,0,1,503,374a10.7,10.7,0,0,1,4.8,3.6,13.24,13.24,0,0,1,2.2,5.3,37.93,37.93,0,0,1,.4,7V416h-7.2V390.1a21.79,21.79,0,0,0-.8-6.6,7.28,7.28,0,0,0-3-3.5,9.1,9.1,0,0,0-5-1.3,11.66,11.66,0,0,0-7.9,2.9q-3.3,2.85-3.3,11.1v23.2h-7.3Z" transform="translate(0.01 -0.3)"/>
    <path class="cls-3" d="M550.6,402.4l7.4.9a18.42,18.42,0,0,1-6.5,10.1c-3.2,2.4-7.2,3.6-12.2,3.6-6.2,0-11.2-1.9-14.8-5.7s-5.5-9.2-5.5-16.1c0-7.2,1.8-12.7,5.5-16.7s8.5-5.9,14.3-5.9a18,18,0,0,1,13.9,5.8c3.6,3.9,5.4,9.3,5.4,16.3v1.9H526.4c.3,4.7,1.6,8.2,4,10.7a11.7,11.7,0,0,0,8.9,3.7,11.22,11.22,0,0,0,6.8-2.1C548.1,407.6,549.5,405.4,550.6,402.4ZM527,390.7h23.7c-.3-3.6-1.2-6.3-2.7-8a11,11,0,0,0-8.9-4.2,11.31,11.31,0,0,0-8.3,3.3A13,13,0,0,0,527,390.7Z" transform="translate(0.01 -0.3)"/>
    <path class="cls-3" d="M594.9,400.5l7.1.9a19.06,19.06,0,0,1-5.9,11.5,17.15,17.15,0,0,1-11.8,4.1c-5.8,0-10.5-1.9-14-5.7S565,402,565,394.9a30.36,30.36,0,0,1,2.3-12.1,15.33,15.33,0,0,1,6.9-7.7,20.8,20.8,0,0,1,10.1-2.6,17.72,17.72,0,0,1,11.3,3.5,16.1,16.1,0,0,1,5.6,9.9l-7,1.1c-.7-2.9-1.8-5-3.5-6.4a9.3,9.3,0,0,0-6.1-2.2,11,11,0,0,0-8.8,3.9c-2.3,2.6-3.4,6.7-3.4,12.4s1.1,9.9,3.3,12.5a10.64,10.64,0,0,0,8.6,3.9,10.35,10.35,0,0,0,7.1-2.6C593.2,406.8,594.4,404.1,594.9,400.5Z" transform="translate(0.01 -0.3)"/>
    <path class="cls-3" d="M623.9,409.6l1,6.4a27.81,27.81,0,0,1-5.4.6,13,13,0,0,1-6.1-1.2,6,6,0,0,1-3-3.3c-.6-1.3-.9-4.2-.9-8.5V379.1h-5.3v-5.6h5.3V363l7.2-4.3v14.9h7.2v5.6h-7.2V404a11.23,11.23,0,0,0,.4,4,3.33,3.33,0,0,0,1.2,1.4,5.51,5.51,0,0,0,2.5.5A22.41,22.41,0,0,0,623.9,409.6Z" transform="translate(0.01 -0.3)"/>
    <path class="cls-3" d="M660,402.4l7.4.9a18.42,18.42,0,0,1-6.5,10.1c-3.2,2.4-7.2,3.6-12.2,3.6-6.2,0-11.2-1.9-14.8-5.7s-5.5-9.2-5.5-16.1c0-7.2,1.8-12.7,5.5-16.7s8.5-5.9,14.3-5.9a18,18,0,0,1,13.9,5.8c3.6,3.9,5.4,9.3,5.4,16.3v1.9H636c.3,4.7,1.6,8.2,4,10.7a11.7,11.7,0,0,0,8.9,3.7,11.22,11.22,0,0,0,6.8-2.1A14.2,14.2,0,0,0,660,402.4Zm-23.6-11.7h23.7c-.3-3.6-1.2-6.3-2.7-8a11,11,0,0,0-8.9-4.2,11.31,11.31,0,0,0-8.3,3.3A12.6,12.6,0,0,0,636.4,390.7Z" transform="translate(0.01 -0.3)"/>
    <path class="cls-3" d="M704.1,416.1v-5.4a13.29,13.29,0,0,1-11.9,6.3,16.16,16.16,0,0,1-9.3-2.8,19.45,19.45,0,0,1-6.6-7.8,26.41,26.41,0,0,1-2.3-11.6,31.09,31.09,0,0,1,2.1-11.6,15.82,15.82,0,0,1,6.4-7.9,17.35,17.35,0,0,1,9.5-2.8,13.67,13.67,0,0,1,6.8,1.6,15.4,15.4,0,0,1,4.9,4.2V357.2h7.2v58.7h-6.8Zm-22.8-21.3c0,5.4,1.1,9.5,3.4,12.2a10.31,10.31,0,0,0,8.1,4,10.17,10.17,0,0,0,8-3.9c2.2-2.6,3.3-6.5,3.3-11.8,0-5.8-1.1-10.1-3.4-12.8a10.51,10.51,0,0,0-8.3-4.1,9.89,9.89,0,0,0-8,3.9C682.4,385.1,681.3,389.2,681.3,394.8Z" transform="translate(0.01 -0.3)"/>
  </g>
</svg>
