<svg id="Layer_1" data-name="Layer 1" xmlns="http://www.w3.org/2000/svg" width="162.88" height="42.36" viewBox="0 0 162.88 42.36">
  <defs>
    <style>
      .cls-1 {
        fill: #d8d8d8;
      }

      .cls-2 {
        fill: #191919;
      }
    </style>
  </defs>
  <g id="Start">
    <path class="cls-1" d="M162.8,39.8S150.5,9.4,148.6,4.4A6.17,6.17,0,0,0,141.9.2L82.5.1l17.6,42.2h60.8A1.91,1.91,0,0,0,162.8,39.8Z" transform="translate(0.02)"/>
    <g>
      <path class="cls-2" d="M92.9,8.7a1.62,1.62,0,0,1,.1-2A3.81,3.81,0,0,1,95.4,6a7.61,7.61,0,0,1,2.1.3,5.08,5.08,0,0,1,1.8.9,3.34,3.34,0,0,1,1.1,1.3,2.4,2.4,0,0,1,.2,1.4,1.34,1.34,0,0,1-.9.9,4.84,4.84,0,0,1-1.8.3,8.33,8.33,0,0,1-2.2-.3,5.08,5.08,0,0,1-1.8-.9A3.54,3.54,0,0,1,92.9,8.7Zm1.1,0a2.94,2.94,0,0,0,1.5,1.4,5.45,5.45,0,0,0,2.2.5,2.46,2.46,0,0,0,1.7-.5,1.19,1.19,0,0,0,0-1.5,4.44,4.44,0,0,0-.8-1.1,5.39,5.39,0,0,0-1.3-.7,3.89,3.89,0,0,0-1.5-.2,2.86,2.86,0,0,0-1.7.5C93.6,7.4,93.6,7.9,94,8.7Z" transform="translate(0.02)"/>
      <path class="cls-2" d="M103,11.1l-2.4-5h4.2a3.59,3.59,0,0,1,1.1.2,4.05,4.05,0,0,1,.9.5,2,2,0,0,1,.6.7.9.9,0,0,1-.1,1.1,3.16,3.16,0,0,1-2.1.5h-2l1,2Zm-.3-2.7h2a3.09,3.09,0,0,0,1.3-.2.59.59,0,0,0,.1-.7,1.21,1.21,0,0,0-.5-.5,6.89,6.89,0,0,0-.8-.3h-3Z" transform="translate(0.02)"/>
      <path class="cls-2" d="M112.3,11l-2.1-4.4h-2.6l-.3-.6h6.3l.3.6h-2.6l2.1,4.4Z" transform="translate(0.02)"/>
      <path class="cls-2" d="M117.3,11l-2.4-5h1l2.4,5Z" transform="translate(0.02)"/>
      <path class="cls-2" d="M118.7,8.5a1.62,1.62,0,0,1,.1-2,3.29,3.29,0,0,1,2.4-.7,7.61,7.61,0,0,1,2.1.3,5.08,5.08,0,0,1,1.8.9,3.34,3.34,0,0,1,1.1,1.3,2.4,2.4,0,0,1,.2,1.4,1.34,1.34,0,0,1-.9.9,4.84,4.84,0,0,1-1.8.3,8.33,8.33,0,0,1-2.2-.3,5.08,5.08,0,0,1-1.8-.9A2.34,2.34,0,0,1,118.7,8.5Zm1.1,0a2.94,2.94,0,0,0,1.5,1.4,5.45,5.45,0,0,0,2.2.5,2.46,2.46,0,0,0,1.7-.5,1.19,1.19,0,0,0,0-1.5,4.44,4.44,0,0,0-.8-1.1,5.39,5.39,0,0,0-1.3-.7,3.89,3.89,0,0,0-1.5-.2,2.86,2.86,0,0,0-1.7.5C119.4,7.3,119.4,7.8,119.8,8.5Z" transform="translate(0.02)"/>
      <path class="cls-2" d="M128.7,10.9l-2.4-5h1.1l6,3.9-1.9-3.9h1l2.4,5h-1.1l-6-3.9,1.9,3.9Z" transform="translate(0.02)"/>
      <path class="cls-2" d="M135.6,9.3l1-.1a1.7,1.7,0,0,0,.6.6,2.32,2.32,0,0,0,1,.4,5.28,5.28,0,0,0,1.3.1,3.08,3.08,0,0,0,1-.1,1.07,1.07,0,0,0,.5-.3.3.3,0,0,0,0-.4.78.78,0,0,0-.4-.4,4.65,4.65,0,0,0-.9-.3,8.81,8.81,0,0,0-1.5-.2,13.88,13.88,0,0,1-1.7-.3,3.7,3.7,0,0,1-1.1-.5,1.7,1.7,0,0,1-.6-.6.85.85,0,0,1,0-.7,1.23,1.23,0,0,1,.8-.5,5.21,5.21,0,0,1,1.4-.2,7.77,7.77,0,0,1,1.6.2,5,5,0,0,1,1.3.5,2,2,0,0,1,.8.8l-1,.1a1.6,1.6,0,0,0-.9-.7,3.42,3.42,0,0,0-1.5-.2,3.47,3.47,0,0,0-1.3.2.37.37,0,0,0-.2.5,1,1,0,0,0,.5.4,8.89,8.89,0,0,0,1.8.3,15.25,15.25,0,0,1,1.9.3,5,5,0,0,1,1.3.5,2.34,2.34,0,0,1,.7.7,1.1,1.1,0,0,1,0,.8,1.83,1.83,0,0,1-.8.6,5.9,5.9,0,0,1-1.4.2,11.08,11.08,0,0,1-1.9-.2,3.51,3.51,0,0,1-1.4-.6A3.82,3.82,0,0,1,135.6,9.3Z" transform="translate(0.02)"/>
    </g>
    <g>
      <path d="M104.6,17.6l.9-.1a1,1,0,0,0,.5.6,1.88,1.88,0,0,0,.9.4,4.87,4.87,0,0,0,1.2.1,3.08,3.08,0,0,0,1-.1,1.63,1.63,0,0,0,.6-.3.6.6,0,0,0,.1-.4.78.78,0,0,0-.4-.4,6.89,6.89,0,0,0-.8-.3,8.81,8.81,0,0,0-1.5-.2,9.11,9.11,0,0,1-1.6-.3,3.13,3.13,0,0,1-1-.5,2.65,2.65,0,0,1-.5-.6.59.59,0,0,1,.1-.7,1.23,1.23,0,0,1,.8-.5,5.21,5.21,0,0,1,1.4-.2,4.14,4.14,0,0,1,1.6.2,3.34,3.34,0,0,1,1.2.5,2.7,2.7,0,0,1,.7.8l-1,.1a1.39,1.39,0,0,0-.8-.7,3,3,0,0,0-1.4-.2,3.92,3.92,0,0,0-1.3.2.37.37,0,0,0-.2.5.7.7,0,0,0,.5.4,7.46,7.46,0,0,0,1.7.3,10.61,10.61,0,0,1,1.8.3,3.34,3.34,0,0,1,1.2.5,1.34,1.34,0,0,1,.6.7.78.78,0,0,1-.1.8,2.76,2.76,0,0,1-.8.6,5.9,5.9,0,0,1-1.4.2,9,9,0,0,1-1.8-.2,2.62,2.62,0,0,1-1.3-.6A2.55,2.55,0,0,1,104.6,17.6Z" transform="translate(0.02)"/>
      <path d="M114.7,19.1l-1.6-4.4h-2.6l-.2-.6,6.1-.1.2.6H114l1.6,4.4Z" transform="translate(0.02)"/>
      <path d="M117.7,19.1l1.2-5H120l5,5h-1.2l-1.5-1.5h-3.2l-.3,1.5Zm1.5-2.1h2.6l-1.3-1.4c-.4-.4-.7-.8-.9-1a3.75,3.75,0,0,1-.1,1Z" transform="translate(0.02)"/>
      <path d="M125.8,19,124,14h3.4a7.12,7.12,0,0,1,1.6.1,1.91,1.91,0,0,1,1,.5,1.56,1.56,0,0,1,.6.8c.1.4.1.7-.2.9a3.71,3.71,0,0,1-1.5.5,2.54,2.54,0,0,0,.7.2,6.73,6.73,0,0,1,1.1.7l1.8,1.3h-1.3l-1.4-1c-.4-.3-.7-.5-1-.7a1.55,1.55,0,0,0-.6-.3.9.9,0,0,0-.5-.1h-1.8l.8,2.2Zm0-2.8H128a3.42,3.42,0,0,0,1.1-.1,2.19,2.19,0,0,0,.5-.3.45.45,0,0,0,0-.5,1.7,1.7,0,0,0-.6-.6,2.55,2.55,0,0,0-1.3-.2h-2.5Z" transform="translate(0.02)"/>
      <path d="M135.4,18.9l-1.6-4.4h-2.6l-.2-.6,6.1-.1.2.6h-2.6l1.6,4.4Z" transform="translate(0.02)"/>
    </g>
  </g>
  <g id="Select">
    <path class="cls-1" d="M3.5,0C-1.7,0,.4,3.5.4,3.5S16.7,38.8,17.6,40.8s2.6,1.5,2.6,1.5H80.4L63,.1Z" transform="translate(0.02)"/>
    <g>
      <path class="cls-2" d="M15.9,18.3l.9-.1a1.7,1.7,0,0,0,.6.6,1.88,1.88,0,0,0,.9.4,4.87,4.87,0,0,0,1.2.1,2.22,2.22,0,0,0,.9-.1,2.19,2.19,0,0,0,.5-.3.3.3,0,0,0,0-.4.78.78,0,0,0-.4-.4,3.39,3.39,0,0,0-.8-.3,8.79,8.79,0,0,0-1.4-.2,9.59,9.59,0,0,1-1.5-.3,3.13,3.13,0,0,1-1-.5,1.33,1.33,0,0,1-.5-.6.85.85,0,0,1,0-.7A1,1,0,0,1,16,15a3.73,3.73,0,0,1,1.2-.2,7.72,7.72,0,0,1,1.5.2,3.34,3.34,0,0,1,1.2.5,1.78,1.78,0,0,1,.7.8h-.9a1.78,1.78,0,0,0-.8-.7,3,3,0,0,0-1.4-.2,2,2,0,0,0-1.1.2c-.2.1-.2.3-.1.5a.7.7,0,0,0,.5.4c.2.1.8.2,1.6.4a10.93,10.93,0,0,1,1.7.3,3.34,3.34,0,0,1,1.2.5,1.34,1.34,0,0,1,.6.7,1.1,1.1,0,0,1,0,.8,1.44,1.44,0,0,1-.7.6,4.44,4.44,0,0,1-1.3.2,8.81,8.81,0,0,1-1.7-.2,3.1,3.1,0,0,1-1.3-.6A3,3,0,0,1,15.9,18.3Z" transform="translate(0.02)"/>
      <path class="cls-2" d="M23.7,19.9l-2.4-5h5.2l.3.6H22.6l.7,1.5h4l.3.6h-4l.8,1.7h4.4l.3.6Z" transform="translate(0.02)"/>
      <path class="cls-2" d="M30.3,19.9l-2.4-5h.9l2.1,4.4h3.5l.3.6Z" transform="translate(0.02)"/>
      <path class="cls-2" d="M35.9,19.9l-2.4-5h5.2l.3.6H34.8l.7,1.5h4l.3.6h-4l.8,1.7H41l.3.6Z" transform="translate(0.02)"/>
      <path class="cls-2" d="M46.8,18.1l1,.2a1.3,1.3,0,0,1-.5,1.3,2.67,2.67,0,0,1-1.7.4,6,6,0,0,1-2-.3,3.91,3.91,0,0,1-1.6-1,5.67,5.67,0,0,1-1-1.3,2.4,2.4,0,0,1-.2-1.4,1.42,1.42,0,0,1,.8-.9,3.81,3.81,0,0,1,1.6-.3,4.48,4.48,0,0,1,2,.4,4.18,4.18,0,0,1,1.5,1.1l-.9.2a2.84,2.84,0,0,0-1.1-.8,2.74,2.74,0,0,0-1.3-.2,1.92,1.92,0,0,0-1.2.3.75.75,0,0,0-.4.7,4.4,4.4,0,0,0,.2,1,4.44,4.44,0,0,0,.8,1.1,2.4,2.4,0,0,0,1.2.7,3,3,0,0,0,1.3.2,2.13,2.13,0,0,0,1.2-.3A1.19,1.19,0,0,0,46.8,18.1Z" transform="translate(0.02)"/>
      <path class="cls-2" d="M51.6,19.8l-2.1-4.4H47.1l-.3-.6h5.7l.3.6H50.4l2.1,4.4Z" transform="translate(0.02)"/>
    </g>
    <g>
      <path class="cls-2" d="M13.3,10.7l.9-.1a4.35,4.35,0,0,0,.6.7,2.32,2.32,0,0,0,1,.4,5,5,0,0,0,1.2.2,2.22,2.22,0,0,0,.9-.1,2.19,2.19,0,0,0,.5-.3.45.45,0,0,0,0-.5,1.76,1.76,0,0,0-.4-.5,6.89,6.89,0,0,0-.8-.3c-.2-.1-.7-.1-1.5-.3a11.6,11.6,0,0,1-1.6-.3,2.34,2.34,0,0,1-1-.5,1.34,1.34,0,0,1-.6-.7,1.13,1.13,0,0,1-.1-.8c0-.3.3-.5.6-.6a4.44,4.44,0,0,1,1.3-.2,7.77,7.77,0,0,1,1.6.2,3.1,3.1,0,0,1,1.3.6,2.28,2.28,0,0,1,.8.9H17a1.76,1.76,0,0,0-.9-.8,3.19,3.19,0,0,0-1.4-.3,2.87,2.87,0,0,0-1.2.2.47.47,0,0,0-.1.6,1.21,1.21,0,0,0,.5.5,7,7,0,0,0,1.7.4,10.61,10.61,0,0,1,1.8.3,2.28,2.28,0,0,1,1.2.6,1.78,1.78,0,0,1,.7.8,1.18,1.18,0,0,1,.1.8.88.88,0,0,1-.7.6,5.07,5.07,0,0,1-1.3.2,9,9,0,0,1-1.8-.2,3.69,3.69,0,0,1-1.4-.7A1.76,1.76,0,0,1,13.3,10.7Z" transform="translate(0.02)"/>
      <path class="cls-2" d="M21.4,12.4,18.7,6.8h1l1.1,2.3h3.9L23.6,6.8h1l2.7,5.6h-1L25,9.8H21.1l1.3,2.6Z" transform="translate(0.02)"/>
      <path class="cls-2" d="M28.1,12.4l.1-5.6h1.1l5.8,5.5H34l-1.7-1.7H29.2v1.7Zm1-2.3h2.5L30.1,8.6A11.09,11.09,0,0,0,29,7.5a4.1,4.1,0,0,1,.1,1.1Z" transform="translate(0.02)"/>
      <path class="cls-2" d="M35.8,12.4,33.1,6.8h3.3a7.12,7.12,0,0,1,1.6.1,3.7,3.7,0,0,1,1.1.5c.3.3.6.5.7.8a.9.9,0,0,1,0,1c-.2.3-.6.4-1.3.5a4.88,4.88,0,0,1,.7.3,7.46,7.46,0,0,1,1.2.7l2,1.5H41.2L39.6,11c-.5-.3-.8-.6-1.1-.8a5.74,5.74,0,0,0-.7-.4,1.09,1.09,0,0,0-.5-.1H35.6l1.2,2.5Zm-.5-3.1h2.1a2.79,2.79,0,0,0,1-.1c.2-.1.4-.2.4-.3s0-.3,0-.5a1.06,1.06,0,0,0-.7-.6,2.5,2.5,0,0,0-1.3-.3H34.5Z" transform="translate(0.02)"/>
      <path class="cls-2" d="M43.3,12.4,40.6,6.8H46l.3.7H41.9l.8,1.7h4.1l.3.7H43l.9,1.9h4.6l.3.7Z" transform="translate(0.02)"/>
    </g>
  </g>
</svg>
